<svg width="36" height="36" viewBox="0 0 36 36" fill="none" xmlns="http://www.w3.org/2000/svg">
<rect width="36" height="36" rx="18" fill="white"/>
<path fill-rule="evenodd" clip-rule="evenodd" d="M12.0602 13.8979C12.1774 13.5138 12.5346 13.2344 12.9571 13.2344H23.4571C23.8796 13.2344 24.2368 13.5138 24.3539 13.8979L18.2071 17.9958L12.0602 13.8979ZM10.8946 14.1616C10.8945 14.1676 10.8945 14.1736 10.8946 14.1796V21.6719C10.8946 22.811 11.818 23.7344 12.9571 23.7344H23.4571C24.5962 23.7344 25.5196 22.811 25.5196 21.6719V14.1796M24.3946 15.2229V21.6719C24.3946 22.1896 23.9749 22.6094 23.4571 22.6094H12.9571C12.4393 22.6094 12.0196 22.1896 12.0196 21.6719V15.2229L17.8951 19.1399C18.084 19.2659 18.3302 19.2659 18.5191 19.1399L24.3946 15.2229ZM25.5196 14.1616C25.514 13.0272 24.5927 12.1094 23.4571 12.1094H12.9571C11.8214 12.1094 10.9002 13.0272 10.8946 14.1616" fill="#282828"/>
</svg>
