<svg width="36" height="36" viewBox="0 0 36 36" fill="none" xmlns="http://www.w3.org/2000/svg">
<rect width="36" height="36" rx="18" fill="white"/>
<path d="M25.2246 11.9306C24.4746 12.2981 23.7396 12.4474 22.9746 12.6731C22.1339 11.7244 20.8874 11.6719 19.6896 12.1204C18.4919 12.5689 17.7074 13.6654 17.7246 14.9231V15.6731C15.2909 15.7354 13.1234 14.6269 11.7246 12.6731C11.7246 12.6731 8.58811 18.2479 14.7246 20.9231C13.3206 21.8584 11.9204 22.4891 10.2246 22.4231C12.7056 23.7754 15.4094 24.2404 17.7501 23.5609C20.4351 22.7809 22.6416 20.7686 23.4884 17.7544C23.741 16.8376 23.8664 15.8905 23.8611 14.9396C23.8596 14.7529 24.9936 12.8606 25.2246 11.9299V11.9306Z" stroke="#282828" stroke-width="1.125" stroke-linecap="round" stroke-linejoin="round"/>
</svg>
