<svg width="26" height="26" viewBox="0 0 26 26" fill="none" xmlns="http://www.w3.org/2000/svg">
<path d="M15.1667 21.6667V24.375M10.8333 21.6667V24.375M15.1667 4.33333V1.625M10.8333 4.33333V1.625M7.58333 13H4.875M21.125 13H18.4167M7.58333 7.04167H4.875M21.125 7.04167H18.4167M7.58333 18.9583H4.875M21.125 18.9583H18.4167M7.58333 21.0167V4.98333C7.58333 4.81094 7.65182 4.64561 7.77371 4.52371C7.89561 4.40182 8.06094 4.33333 8.23333 4.33333H17.7667C17.852 4.33333 17.9365 4.35015 18.0154 4.38281C18.0943 4.41548 18.1659 4.46336 18.2263 4.52371C18.2866 4.58407 18.3345 4.65573 18.3672 4.73459C18.3999 4.81345 18.4167 4.89797 18.4167 4.98333V21.0167C18.4167 21.102 18.3999 21.1865 18.3672 21.2654C18.3345 21.3443 18.2866 21.4159 18.2263 21.4763C18.1659 21.5366 18.0943 21.5845 18.0154 21.6172C17.9365 21.6499 17.852 21.6667 17.7667 21.6667H8.23333C8.06094 21.6667 7.89561 21.5982 7.77371 21.4763C7.65182 21.3544 7.58333 21.1891 7.58333 21.0167Z" stroke="#7D868D" stroke-width="1.5" stroke-linecap="round" stroke-linejoin="round"/>
</svg>
