<svg width="513" height="460" viewBox="0 0 513 460" fill="none" xmlns="http://www.w3.org/2000/svg">
<g clip-path="url(#clip0_19_1109)">
<path d="M512.12 55.8832L82.8833 -26.1204L0.879759 403.117L430.117 485.12L512.12 55.8832Z" fill="white"/>
<path d="M271.992 367.281C293.574 344.984 292.994 309.413 270.696 287.831C248.399 266.249 212.827 266.829 191.246 289.126C169.664 311.424 170.244 346.995 192.541 368.577C214.839 390.159 250.41 389.579 271.992 367.281Z" fill="#50BB87"/>
<path d="M265.164 360.62C283.069 342.096 282.566 312.566 264.043 294.662C245.519 276.757 215.988 277.259 198.084 295.783C180.18 314.307 180.682 343.837 199.206 361.742C217.73 379.646 247.26 379.144 265.164 360.62Z" fill="#50BB87"/>
<path d="M187.545 321.991C189.249 313.057 193.529 304.816 199.857 298.283C206.185 291.75 214.285 287.21 223.16 285.221C232.036 283.232 241.299 283.882 249.809 287.09C258.32 290.298 265.707 295.925 271.061 303.277C267.721 297.985 263.351 293.419 258.21 289.851C253.069 286.283 247.263 283.786 241.137 282.508C235.012 281.23 228.691 281.198 222.553 282.414C216.414 283.629 210.583 286.067 205.406 289.583C200.229 293.098 195.813 297.62 192.419 302.878C189.026 308.136 186.726 314.022 185.655 320.188C184.583 326.353 184.764 332.671 186.185 338.765C187.606 344.859 190.239 350.605 193.927 355.661C187.589 345.66 185.306 333.617 187.545 321.991Z" fill="#094D55"/>
<path d="M178.413 79.0076C177.009 76.9113 176.477 74.3504 176.93 71.8682C177.383 69.386 178.785 67.178 180.839 65.7126C216.674 39.9527 257.445 28.6515 298.535 36.5014C357.067 47.6837 397.36 87.2998 386.012 146.697C375.086 203.89 302.443 204.606 297.4 231.004L294.594 245.689C294.112 248.213 292.648 250.441 290.522 251.885C288.397 253.328 285.785 253.868 283.262 253.386L220.45 241.386C217.928 240.903 215.701 239.437 214.259 237.313C212.817 235.188 212.278 232.577 212.76 230.055L217.666 204.372C225.399 163.894 299.723 154.378 304.346 130.179C307.54 113.464 291.14 106.226 275.739 103.284C259.409 100.164 237.162 110.191 219.593 122.481C218.539 123.223 217.347 123.748 216.087 124.025C214.827 124.301 213.525 124.324 212.256 124.091C210.987 123.858 209.778 123.374 208.698 122.668C207.619 121.962 206.691 121.048 205.969 119.979L178.413 79.0076Z" fill="#50BB87"/>
<path d="M221.659 235.058C220.815 234.895 220.071 234.404 219.589 233.693C219.107 232.982 218.926 232.108 219.088 231.264L223.994 205.581C227.763 185.856 251.656 173.703 272.758 162.992C291.7 153.365 308.064 145.052 310.673 131.394C312.224 123.278 312.04 103.667 276.947 96.9625C254.184 92.6138 226.659 109.668 215.903 117.205C215.539 117.462 215.128 117.643 214.693 117.737C214.258 117.831 213.808 117.837 213.371 117.753C212.955 117.673 212.559 117.512 212.205 117.278C211.852 117.044 211.549 116.742 211.313 116.389L183.761 75.3983C183.294 74.6889 183.122 73.8254 183.281 72.9912C183.441 72.157 183.919 71.4177 184.614 70.9303C220.298 45.2965 259.281 35.5546 297.327 42.8231C325.852 48.2726 348.759 60.3336 363.563 77.7224C379.1 95.9385 384.673 119.376 379.679 145.514C373.774 176.426 348.018 189.153 325.285 200.389C308.343 208.76 293.708 215.995 291.067 229.821L288.261 244.506C288.098 245.351 287.607 246.096 286.896 246.579C286.185 247.062 285.311 247.244 284.466 247.084L221.659 235.058Z" fill="#064F58"/>
<path d="M226.368 237.899C225.523 237.736 224.778 237.245 224.295 236.534C223.812 235.823 223.63 234.949 223.79 234.104L228.691 208.447C232.46 188.722 256.353 176.569 277.455 165.858C296.403 156.232 312.765 147.898 315.374 134.24C316.924 126.124 316.748 106.514 281.648 99.8087C258.885 95.46 231.36 112.514 220.604 120.051C220.241 120.308 219.831 120.488 219.397 120.582C218.963 120.677 218.515 120.683 218.079 120.6C217.661 120.521 217.264 120.36 216.909 120.125C216.555 119.891 216.25 119.588 216.014 119.235L188.449 78.3095C187.981 77.6006 187.808 76.7366 187.967 75.9019C188.126 75.0672 188.606 74.3278 189.303 73.8415C225.005 48.1776 263.985 38.4553 302.031 45.7238C330.556 51.1733 353.469 63.2355 368.274 80.6243C383.811 98.8339 389.383 122.278 384.389 148.416C378.484 179.328 352.722 192.054 329.995 203.291C313.047 211.661 298.412 218.895 295.771 232.722L292.965 247.407C292.804 248.251 292.314 248.997 291.604 249.48C290.894 249.964 290.021 250.146 289.176 249.986L226.368 237.899Z" fill="#50BB87"/>
<path d="M301.554 364.163C301.321 364.045 301.05 364.022 300.801 364.101C300.552 364.179 300.343 364.352 300.22 364.582C295.05 374.723 287.592 383.522 278.436 390.284C269.28 397.046 258.676 401.586 247.464 403.544C247.236 403.585 247.029 403.705 246.88 403.882C246.731 404.059 246.648 404.282 246.647 404.514C246.645 404.745 246.724 404.97 246.87 405.149C247.016 405.329 247.221 405.451 247.448 405.496C247.566 405.518 247.687 405.519 247.805 405.497C259.318 403.482 270.204 398.818 279.603 391.872C289.003 384.926 296.658 375.889 301.964 365.475C302.076 365.245 302.096 364.982 302.02 364.738C301.944 364.494 301.777 364.288 301.554 364.163Z" fill="#064F58"/>
<path d="M217.372 406.329C201.958 403.412 187.757 395.986 176.566 384.992C165.375 373.998 157.699 359.931 154.508 344.571C154.449 344.318 154.294 344.098 154.076 343.958C153.857 343.819 153.592 343.77 153.338 343.823C153.084 343.875 152.861 344.025 152.716 344.241C152.571 344.456 152.516 344.72 152.563 344.975C155.833 360.719 163.701 375.139 175.172 386.408C186.643 397.678 201.2 405.29 216.999 408.28C217.258 408.33 217.526 408.274 217.744 408.126C217.962 407.978 218.112 407.75 218.161 407.491C218.211 407.232 218.155 406.965 218.007 406.747C217.859 406.529 217.631 406.379 217.372 406.329Z" fill="#064F58"/>
<path d="M334.436 289.075C334.486 288.816 334.43 288.549 334.282 288.331C334.134 288.113 333.906 287.963 333.647 287.913L298.3 281.16C298.107 281.127 297.909 281.152 297.73 281.232C297.551 281.311 297.4 281.443 297.296 281.609C297.192 281.775 297.14 281.968 297.146 282.163C297.152 282.359 297.216 282.548 297.33 282.708C307.829 297.688 312.843 315.83 311.528 334.076C311.51 334.319 311.581 334.561 311.73 334.754C311.878 334.948 312.092 335.08 312.332 335.126L312.442 335.147C312.705 335.167 312.965 335.082 313.164 334.91C313.364 334.738 313.487 334.494 313.507 334.232C314.802 316.353 310.162 298.546 300.306 283.573L333.273 289.871C333.402 289.895 333.534 289.894 333.662 289.868C333.791 289.841 333.912 289.789 334.02 289.715C334.128 289.641 334.221 289.546 334.292 289.437C334.364 289.327 334.413 289.204 334.436 289.075Z" fill="#064F58"/>
<path d="M340.705 343.277C339.411 343.03 338.072 343.248 336.923 343.892C335.774 344.535 334.889 345.564 334.424 346.795L299.682 340.158C301.445 330.142 300.951 319.858 298.236 310.056C295.521 300.255 290.653 291.183 283.987 283.502L309.394 266.245L333.984 270.943C333.969 272.34 334.479 273.693 335.411 274.734C336.344 275.775 337.632 276.429 339.022 276.568C340.413 276.707 341.805 276.32 342.925 275.484C344.045 274.648 344.812 273.423 345.074 272.051C345.336 270.678 345.075 269.257 344.342 268.067C343.61 266.877 342.458 266.004 341.114 265.621C339.77 265.237 338.331 265.37 337.081 265.994C335.83 266.618 334.858 267.688 334.357 268.992L309.357 264.216C309.098 264.169 308.831 264.224 308.613 264.37L282.654 282.007C274.08 272.656 263.075 265.874 250.868 262.419C238.661 258.964 225.733 258.971 213.53 262.441C201.327 265.91 190.33 272.705 181.767 282.066C173.203 291.426 167.412 302.984 165.04 315.447C164.931 316.019 164.823 316.585 164.716 317.144L156.897 322.506L147.401 320.692C147.143 320.642 146.875 320.698 146.657 320.846C146.439 320.994 146.289 321.222 146.239 321.481C146.19 321.74 146.245 322.007 146.393 322.225C146.541 322.443 146.77 322.593 147.029 322.643L156.914 324.531C157.173 324.581 157.44 324.525 157.658 324.377L164.357 319.833C163.787 324.374 163.674 328.962 164.02 333.526L134.057 327.802C133.799 327.753 133.531 327.808 133.313 327.956C133.095 328.104 132.945 328.333 132.896 328.592C132.846 328.85 132.902 329.118 133.05 329.336C133.198 329.554 133.426 329.704 133.685 329.753L164.219 335.587C165.798 350.172 172.014 363.866 181.952 374.657C191.89 385.448 205.027 392.768 219.433 395.54C220.214 395.689 220.988 395.837 221.77 395.939C221.784 396.101 221.837 396.257 221.926 396.394L231.113 409.912C231.261 410.13 231.49 410.28 231.748 410.33L263.414 416.379C263.401 417.771 263.909 419.118 264.838 420.155C265.768 421.191 267.051 421.843 268.437 421.981C269.822 422.119 271.209 421.733 272.325 420.9C273.44 420.067 274.204 418.847 274.465 417.479C274.726 416.112 274.466 414.696 273.736 413.51C273.007 412.325 271.859 411.455 270.521 411.073C269.182 410.69 267.749 410.822 266.502 411.443C265.256 412.064 264.288 413.129 263.787 414.428L232.524 408.455L224.254 396.279C240.194 398.139 256.281 394.347 269.713 385.564C283.145 376.782 293.07 363.565 297.758 348.217L316.716 351.839L324.706 363.611C324.854 363.829 325.083 363.979 325.341 364.028C325.6 364.078 325.867 364.023 326.085 363.875C326.193 363.802 326.286 363.709 326.358 363.6C326.431 363.491 326.48 363.369 326.505 363.24C326.529 363.112 326.528 362.98 326.501 362.853C326.474 362.725 326.422 362.604 326.348 362.496L318.127 350.382C317.978 350.166 317.75 350.016 317.492 349.965L298.313 346.301C298.683 344.929 299.015 343.543 299.305 342.129L334.06 348.769C334.056 349.831 334.354 350.873 334.92 351.773C335.486 352.672 336.297 353.392 337.257 353.848C338.218 354.303 339.288 354.476 340.343 354.345C341.397 354.214 342.393 353.786 343.213 353.11C344.034 352.434 344.644 351.539 344.974 350.528C345.304 349.518 345.339 348.435 345.075 347.405C344.812 346.375 344.26 345.442 343.486 344.714C342.711 343.987 341.745 343.495 340.701 343.296L340.705 343.277ZM340.248 267.475C340.949 267.609 341.595 267.948 342.103 268.449C342.612 268.949 342.96 269.59 343.105 270.289C343.249 270.988 343.183 271.714 342.915 272.375C342.647 273.037 342.189 273.604 341.598 274.005C341.008 274.406 340.312 274.623 339.598 274.628C338.885 274.633 338.185 274.427 337.589 274.035C336.993 273.643 336.526 273.083 336.248 272.426C335.97 271.768 335.893 271.043 336.027 270.342C336.208 269.403 336.754 268.574 337.545 268.037C338.336 267.499 339.308 267.297 340.248 267.475ZM269.678 412.911C270.38 413.045 271.026 413.384 271.534 413.885C272.043 414.386 272.391 415.027 272.535 415.726C272.68 416.426 272.613 417.152 272.345 417.814C272.076 418.475 271.617 419.042 271.026 419.443C270.435 419.843 269.738 420.059 269.024 420.064C268.311 420.069 267.611 419.861 267.015 419.468C266.419 419.075 265.953 418.514 265.676 417.856C265.399 417.198 265.323 416.473 265.458 415.772C265.639 414.833 266.185 414.005 266.977 413.469C267.768 412.932 268.74 412.732 269.678 412.911ZM219.806 393.589C202.923 390.341 187.952 380.684 178.031 366.642C168.111 352.6 164.011 335.262 166.591 318.264C166.714 318.126 166.794 317.956 166.823 317.774C166.851 317.592 166.828 317.406 166.754 317.237C166.842 316.775 166.93 316.313 167.02 315.845C170.477 298.679 180.57 283.572 195.104 273.806C209.639 264.039 227.44 260.404 244.64 263.69C261.839 266.976 277.047 276.917 286.957 291.354C296.868 305.79 300.681 323.554 297.567 340.785C297.204 342.684 296.754 344.547 296.242 346.377C296.112 346.512 296.023 346.683 295.987 346.867C295.962 346.996 295.962 347.129 295.986 347.258C291.273 363.039 280.875 376.511 266.803 385.069C252.732 393.627 235.986 396.663 219.806 393.589ZM338.978 352.317C338.277 352.183 337.631 351.844 337.122 351.343C336.614 350.842 336.265 350.202 336.121 349.503C335.976 348.804 336.042 348.078 336.31 347.417C336.579 346.755 337.037 346.188 337.627 345.787C338.218 345.386 338.914 345.169 339.627 345.164C340.341 345.158 341.04 345.365 341.637 345.757C342.233 346.149 342.7 346.709 342.978 347.366C343.256 348.023 343.333 348.748 343.199 349.449C343.018 350.389 342.472 351.218 341.681 351.755C340.889 352.293 339.917 352.494 338.978 352.317Z" fill="#064F58"/>
<path d="M371.828 220.133C370.463 219.874 369.05 220.131 367.864 220.855C366.678 221.579 365.803 222.718 365.41 224.051L336.378 218.504C336.167 218.465 335.949 218.494 335.756 218.588C321.693 225.541 309.553 231.54 308.038 239.467L305.233 254.153C305.183 254.411 305.239 254.679 305.387 254.897C305.535 255.115 305.763 255.265 306.022 255.314C306.281 255.364 306.548 255.308 306.766 255.16C306.984 255.012 307.134 254.784 307.184 254.525L309.989 239.84C311.309 232.933 322.879 227.169 336.337 220.519L365.206 226.034C365.283 227.074 365.65 228.072 366.264 228.915C366.878 229.757 367.716 230.411 368.683 230.803C369.65 231.194 370.707 231.307 371.734 231.129C372.762 230.95 373.719 230.488 374.498 229.794C375.276 229.101 375.845 228.203 376.14 227.202C376.435 226.202 376.444 225.139 376.166 224.134C375.888 223.129 375.335 222.221 374.568 221.514C373.801 220.807 372.852 220.329 371.828 220.133ZM370.101 229.173C369.257 229.01 368.498 228.551 367.962 227.879C367.426 227.207 367.147 226.366 367.174 225.507C367.184 225.473 367.191 225.438 367.194 225.403C367.213 225.305 367.214 225.205 367.197 225.107C367.207 225.055 367.217 225.002 367.227 224.95C367.361 224.249 367.7 223.604 368.2 223.095C368.701 222.587 369.342 222.238 370.04 222.094C370.739 221.949 371.465 222.015 372.127 222.283C372.788 222.551 373.355 223.01 373.756 223.6C374.157 224.191 374.374 224.887 374.38 225.6C374.385 226.314 374.179 227.013 373.787 227.61C373.395 228.206 372.835 228.673 372.177 228.951C371.52 229.229 370.795 229.306 370.094 229.172L370.101 229.173Z" fill="#064F58"/>
<path d="M142.528 321.783C142.787 321.833 143.054 321.777 143.272 321.629C143.49 321.481 143.64 321.253 143.69 320.994C143.739 320.735 143.684 320.468 143.536 320.25C143.388 320.032 143.159 319.882 142.901 319.832L130.069 317.381C130.047 315.976 129.5 314.631 128.536 313.61C127.572 312.588 126.261 311.965 124.86 311.862C123.459 311.759 122.071 312.184 120.968 313.054C119.865 313.924 119.127 315.175 118.901 316.561C118.674 317.947 118.974 319.368 119.743 320.544C120.511 321.719 121.692 322.565 123.052 322.914C124.413 323.262 125.855 323.089 127.094 322.428C128.333 321.767 129.28 320.666 129.748 319.342L142.528 321.783ZM123.795 321.042C123.093 320.91 122.446 320.572 121.937 320.071C121.427 319.571 121.078 318.93 120.932 318.231C120.787 317.531 120.853 316.805 121.121 316.143C121.389 315.48 121.847 314.913 122.438 314.512C123.029 314.11 123.726 313.893 124.44 313.888C125.154 313.883 125.854 314.09 126.45 314.483C127.047 314.876 127.513 315.437 127.791 316.095C128.068 316.753 128.144 317.479 128.009 318.18C127.828 319.117 127.284 319.943 126.496 320.48C125.707 321.016 124.739 321.219 123.801 321.044L123.795 321.042Z" fill="#064F58"/>
<path d="M397.812 154.371C397.553 154.322 397.286 154.377 397.068 154.525C396.85 154.673 396.7 154.902 396.65 155.161C393.274 172.831 384.081 187.293 368.541 199.37C368.334 199.533 368.2 199.771 368.168 200.033C368.135 200.294 368.207 200.558 368.368 200.766C368.532 200.973 368.77 201.107 369.031 201.14C369.293 201.172 369.556 201.1 369.765 200.939C385.7 188.553 395.131 173.698 398.601 155.533C398.626 155.405 398.625 155.274 398.598 155.146C398.572 155.018 398.521 154.897 398.447 154.789C398.374 154.681 398.28 154.589 398.171 154.517C398.062 154.445 397.94 154.396 397.812 154.371Z" fill="#064F58"/>
<path d="M408.586 152.527C408.437 152.31 408.209 152.16 407.951 152.109L392.909 149.235C392.965 148.942 393.02 148.65 393.076 148.357C393.589 145.671 393.998 143.005 394.327 140.365L429.381 147.062C429.367 148.459 429.876 149.812 430.808 150.853C431.741 151.894 433.029 152.548 434.42 152.687C435.81 152.826 437.203 152.439 438.323 151.603C439.443 150.767 440.209 149.542 440.471 148.17C440.734 146.797 440.473 145.376 439.74 144.186C439.007 142.996 437.855 142.123 436.511 141.74C435.167 141.356 433.728 141.489 432.478 142.113C431.227 142.737 430.256 143.807 429.754 145.111L394.569 138.389C397.42 111.471 390.426 87.2155 374.079 67.739C357.219 47.6656 331.539 33.8885 299.834 27.8314C257.905 19.8211 215.125 30.6307 176.117 59.0943C172.43 61.7662 169.919 65.7593 169.107 70.2395C168.295 74.7196 169.245 79.3402 171.76 83.136L174.228 86.8702C174.215 86.9193 174.206 86.9693 174.2 87.0198L168.981 114.335C168.932 114.594 168.987 114.861 169.135 115.079C169.283 115.297 169.512 115.447 169.77 115.497C170.029 115.546 170.297 115.491 170.515 115.343C170.733 115.195 170.883 114.966 170.932 114.708L175.797 89.246L183.728 101.223L174.271 150.722L149.098 167.814L123.838 162.988C123.851 161.598 123.343 160.253 122.415 159.218C121.487 158.183 120.204 157.532 118.821 157.395C117.437 157.257 116.052 157.642 114.938 158.474C113.824 159.306 113.061 160.525 112.8 161.891C112.539 163.257 112.799 164.671 113.528 165.855C114.257 167.039 115.402 167.908 116.739 168.29C118.076 168.672 119.508 168.54 120.752 167.92C121.997 167.3 122.965 166.237 123.465 164.939L149.135 169.844C149.394 169.893 149.661 169.837 149.879 169.689L175.734 152.134C175.952 151.986 176.102 151.758 176.152 151.499L185.304 103.594L189.602 110.098L179.25 164.286C179.201 164.544 179.256 164.812 179.404 165.03C179.552 165.248 179.781 165.398 180.039 165.447C180.298 165.497 180.566 165.442 180.784 165.294C181.002 165.146 181.152 164.917 181.201 164.658L191.172 112.467L199.023 124.301L194.755 146.641C194.705 146.899 194.761 147.167 194.909 147.385C195.057 147.603 195.285 147.753 195.544 147.802C195.803 147.852 196.071 147.797 196.288 147.649C196.506 147.501 196.657 147.272 196.706 147.013L200.63 126.475C203.144 129.383 206.57 131.352 210.348 132.059C212.638 132.499 214.992 132.468 217.269 131.968C219.546 131.468 221.697 130.509 223.591 129.149C242.73 115.556 262.051 108.529 274.011 110.814C290.647 113.992 298.228 120.112 296.528 129.008C295.192 136 279.664 144.028 265.968 151.112C241.952 163.524 214.734 177.59 209.602 204.456L204.699 230.119L187.766 241.795C186.677 240.9 185.293 240.445 183.886 240.519C182.478 240.594 181.15 241.192 180.161 242.197C179.173 243.202 178.597 244.54 178.545 245.948C178.494 247.357 178.972 248.734 179.885 249.807C180.798 250.881 182.08 251.574 183.479 251.75C184.877 251.926 186.291 251.572 187.441 250.758C188.592 249.944 189.396 248.729 189.695 247.352C189.995 245.974 189.768 244.535 189.06 243.317L206.144 231.515C206.251 231.442 206.342 231.349 206.413 231.241C206.483 231.133 206.531 231.012 206.554 230.885L211.537 204.806C216.488 178.889 243.256 165.027 266.864 152.846C281.651 145.203 296.946 137.299 298.463 129.358C300.41 119.167 292.292 112.264 274.368 108.839C261.894 106.456 241.99 113.608 222.422 127.504C220.765 128.693 218.884 129.536 216.893 129.982C214.902 130.427 212.842 130.466 210.836 130.097C208.829 129.728 206.918 128.957 205.217 127.831C203.515 126.706 202.058 125.249 200.933 123.547L173.44 82.0684C171.208 78.6995 170.364 74.5985 171.085 70.6221C171.806 66.6458 174.035 63.1018 177.308 60.7306C215.829 32.5919 258.074 21.9026 299.45 29.8072C330.7 35.7773 355.97 49.3684 372.542 69.043C390.493 90.39 396.953 117.691 391.164 147.992C384.029 185.342 352.828 201.026 330.051 212.489C315.972 219.567 303.81 225.677 302.275 233.715L299.428 248.615C298.687 252.637 296.38 256.201 293.015 258.525C289.649 260.849 285.499 261.744 281.475 261.013L246.355 254.303C246.136 254.262 245.909 254.294 245.711 254.396C245.566 254.233 245.371 254.122 245.157 254.081C225.529 250.342 205.22 254.543 188.686 265.763C172.153 276.983 160.747 294.305 156.972 313.926C156.922 314.184 156.978 314.452 157.126 314.67C157.274 314.888 157.502 315.038 157.761 315.087C158.02 315.137 158.287 315.081 158.505 314.934C158.723 314.785 158.873 314.557 158.923 314.298C162.595 295.2 173.692 278.339 189.78 267.413C205.869 256.486 225.634 252.388 244.74 256.017C244.936 255.912 245.161 255.877 245.379 255.919C245.597 255.961 245.794 256.076 245.937 256.246L281.056 262.955C285.598 263.785 290.284 262.78 294.085 260.16C297.887 257.54 300.493 253.519 301.334 248.979L304.182 234.072C305.532 227.003 317.295 221.074 330.891 214.234C353.458 202.879 384.161 187.436 392.458 151.171L407.143 153.977L418.469 170.66C418.618 170.877 418.846 171.027 419.104 171.078C419.296 171.115 419.496 171.094 419.677 171.017C419.857 170.94 420.011 170.812 420.119 170.648C420.227 170.484 420.284 170.291 420.282 170.095C420.281 169.899 420.221 169.707 420.111 169.545L408.586 152.527ZM435.655 143.542C436.356 143.676 437.002 144.015 437.51 144.516C438.019 145.016 438.367 145.657 438.512 146.356C438.656 147.055 438.591 147.781 438.322 148.442C438.054 149.103 437.596 149.671 437.006 150.072C436.415 150.473 435.719 150.689 435.006 150.695C434.292 150.7 433.593 150.494 432.996 150.102C432.4 149.71 431.933 149.15 431.655 148.493C431.377 147.835 431.3 147.11 431.434 146.409C431.52 145.942 431.699 145.496 431.958 145.097C432.218 144.699 432.553 144.356 432.946 144.087C433.339 143.819 433.781 143.631 434.246 143.534C434.712 143.437 435.192 143.433 435.659 143.522L435.655 143.542ZM117.562 166.373C116.861 166.239 116.216 165.901 115.707 165.4C115.199 164.899 114.85 164.259 114.706 163.56C114.561 162.861 114.627 162.135 114.895 161.473C115.164 160.812 115.622 160.245 116.212 159.844C116.803 159.443 117.499 159.226 118.212 159.22C118.926 159.215 119.625 159.421 120.222 159.813C120.818 160.205 121.285 160.765 121.563 161.423C121.841 162.08 121.918 162.805 121.784 163.506C121.603 164.445 121.057 165.274 120.266 165.812C119.474 166.349 118.502 166.551 117.562 166.373ZM183.495 249.648C182.794 249.515 182.149 249.176 181.64 248.675C181.132 248.174 180.783 247.534 180.639 246.835C180.494 246.136 180.56 245.41 180.828 244.748C181.096 244.087 181.554 243.52 182.145 243.119C182.735 242.718 183.431 242.501 184.145 242.496C184.859 242.49 185.558 242.696 186.154 243.088C186.751 243.48 187.218 244.041 187.496 244.698C187.774 245.355 187.851 246.08 187.717 246.781C187.536 247.72 186.99 248.549 186.198 249.087C185.407 249.624 184.435 249.826 183.495 249.648Z" fill="#064F58"/>
<path d="M423.743 176.643C423.672 176.53 423.579 176.433 423.47 176.356C423.36 176.28 423.237 176.227 423.106 176.2C422.975 176.172 422.841 176.171 422.71 176.197C422.579 176.223 422.455 176.275 422.344 176.35C422.234 176.425 422.14 176.521 422.068 176.634C421.995 176.746 421.946 176.871 421.924 177.003C421.901 177.134 421.905 177.269 421.936 177.398C421.966 177.528 422.022 177.651 422.101 177.758L429.645 188.866C429.718 188.975 429.811 189.068 429.92 189.14C430.029 189.211 430.152 189.261 430.28 189.284C430.408 189.31 430.54 189.31 430.668 189.284C430.796 189.257 430.917 189.205 431.024 189.13C431.133 189.057 431.226 188.963 431.298 188.855C431.37 188.746 431.419 188.623 431.444 188.495C431.468 188.367 431.467 188.235 431.44 188.107C431.414 187.98 431.362 187.858 431.288 187.751L423.743 176.643Z" fill="#064F58"/>
<path d="M176.974 184.458L179.221 172.693C179.271 172.434 179.216 172.166 179.068 171.948C178.92 171.73 178.691 171.58 178.432 171.531C178.174 171.481 177.906 171.537 177.688 171.685C177.47 171.833 177.32 172.061 177.27 172.32L175.023 184.085C174.973 184.344 175.029 184.612 175.177 184.829C175.325 185.047 175.553 185.197 175.812 185.247C176.071 185.296 176.338 185.241 176.556 185.093C176.774 184.945 176.924 184.716 176.974 184.458Z" fill="#064F58"/>
<path d="M193.27 165.279L194.975 156.356C195.025 156.097 194.969 155.829 194.821 155.611C194.673 155.394 194.445 155.243 194.186 155.194C193.927 155.145 193.659 155.2 193.442 155.348C193.224 155.496 193.074 155.724 193.024 155.983L191.319 164.906C191.27 165.165 191.325 165.433 191.473 165.65C191.621 165.868 191.85 166.019 192.109 166.068C192.367 166.117 192.635 166.062 192.853 165.914C193.071 165.766 193.221 165.538 193.27 165.279Z" fill="#064F58"/>
<path d="M167.773 127.613L168.767 122.41C168.816 122.151 168.761 121.884 168.613 121.666C168.465 121.448 168.236 121.298 167.977 121.248C167.719 121.199 167.451 121.254 167.233 121.402C167.015 121.55 166.865 121.779 166.816 122.037L165.822 127.24C165.772 127.499 165.828 127.767 165.976 127.985C166.124 128.202 166.352 128.353 166.611 128.402C166.869 128.452 167.137 128.396 167.355 128.248C167.573 128.1 167.723 127.872 167.773 127.613Z" fill="#064F58"/>
<path d="M342.223 291.715L354.34 294.03C354.598 294.079 354.866 294.024 355.084 293.876C355.302 293.728 355.452 293.5 355.502 293.241C355.551 292.982 355.496 292.714 355.348 292.496C355.2 292.279 354.971 292.128 354.712 292.079L342.596 289.764C342.337 289.715 342.07 289.77 341.852 289.918C341.634 290.066 341.484 290.295 341.434 290.553C341.385 290.812 341.44 291.08 341.588 291.298C341.736 291.516 341.965 291.666 342.223 291.715Z" fill="#064F58"/>
<g clip-path="url(#clip1_19_1109)">
<mask id="mask0_19_1109" style="mask-type:luminance" maskUnits="userSpaceOnUse" x="238" y="313" width="8" height="12">
<path d="M238.906 314.388C240.405 316.751 241.269 319.474 241.414 322.288C242.81 322.965 244.125 323.801 245.334 324.78C245.65 320.763 244.776 316.748 242.824 313.254C241.481 313.481 240.167 313.861 238.906 314.388Z" fill="white"/>
</mask>
<g mask="url(#mask0_19_1109)">
<path d="M246.673 310.868L235.115 313.525L237.929 326.487L249.486 323.83L246.673 310.868Z" fill="#064F58"/>
</g>
<mask id="mask1_19_1109" style="mask-type:luminance" maskUnits="userSpaceOnUse" x="207" y="317" width="12" height="21">
<path d="M214.407 317.674C212.564 317.77 210.824 318.587 209.554 319.955C207.247 322.455 206.491 326.631 207.626 330.601C208.473 333.237 210.014 335.583 212.082 337.388C212.321 336.123 212.681 334.885 213.156 333.69C213.199 333.463 213.334 333.253 213.438 333.038C212.526 331.997 211.84 330.773 211.422 329.444C210.701 326.89 211.118 324.103 212.433 322.665C212.808 322.28 213.275 322 213.787 321.854C214.181 322.33 214.724 322.653 215.327 322.769C215.766 322.854 216.221 322.829 216.65 322.696C217.079 322.562 217.47 322.325 217.79 322.003C218.109 321.682 218.346 321.286 218.482 320.852C218.617 320.417 218.645 319.955 218.565 319.508C218.485 319.061 218.298 318.641 218.02 318.285C217.743 317.929 217.384 317.648 216.974 317.466C216.564 317.284 216.117 317.207 215.669 317.242C215.222 317.276 214.79 317.421 214.409 317.663" fill="white"/>
</mask>
<g mask="url(#mask1_19_1109)">
<path d="M219.15 316.286L205.712 315.649L204.576 337.493L218.015 338.13L219.15 316.286Z" fill="#064F58"/>
</g>
<mask id="mask2_19_1109" style="mask-type:luminance" maskUnits="userSpaceOnUse" x="233" y="327" width="12" height="13">
<path d="M233.379 337.103L236.515 339.841C239.346 338.457 242.885 334.021 244.098 330.425L240.925 327.605C239.592 331.168 236.503 335.444 233.371 337.144" fill="white"/>
</mask>
<g mask="url(#mask2_19_1109)">
<path d="M240.322 322.679L227.848 332.389L237.163 344.774L249.636 335.063L240.322 322.679Z" fill="#064F58"/>
</g>
<mask id="mask3_19_1109" style="mask-type:luminance" maskUnits="userSpaceOnUse" x="230" y="321" width="22" height="22">
<path d="M231.76 321.417C231.116 322.738 230.685 324.154 230.485 325.611C233.47 325.184 236.508 325.667 239.211 327C241.096 327.808 242.748 329.087 244.011 330.719C244.281 331.01 244.531 331.319 244.76 331.643C245.058 332.034 245.331 332.443 245.578 332.869C246.068 333.667 246.481 334.512 246.81 335.393C247.573 337.536 247.928 339.811 247.854 342.094C249.261 341.745 250.592 341.128 251.776 340.277C251.671 338.103 251.244 335.959 250.509 333.918C249.537 331.368 248.043 329.059 246.124 327.145C245.814 326.82 245.486 326.511 245.144 326.22C244.014 325.217 242.764 324.36 241.425 323.67C241.068 323.466 240.698 323.285 240.319 323.127C238.969 322.524 237.555 322.078 236.104 321.798C234.669 321.525 233.208 321.418 231.748 321.479" fill="white"/>
</mask>
<g mask="url(#mask3_19_1109)">
<path d="M237.109 312.593L222.08 333.958L245.559 350.924L260.588 329.558L237.109 312.593Z" fill="#064F58"/>
</g>
<mask id="mask4_19_1109" style="mask-type:luminance" maskUnits="userSpaceOnUse" x="232" y="347" width="20" height="11">
<path d="M246.335 348.668C246.104 349.125 245.824 349.556 245.501 349.952C243.803 352.013 241.31 353.226 239.413 352.917C238.755 352.816 238.148 352.501 237.681 352.02C237.713 351.486 237.592 350.955 237.334 350.492C237.076 350.028 236.691 349.65 236.226 349.403C235.76 349.157 235.234 349.052 234.71 349.102C234.186 349.151 233.686 349.353 233.27 349.683C232.854 350.013 232.54 350.457 232.364 350.962C232.189 351.467 232.161 352.012 232.282 352.531C232.404 353.05 232.67 353.522 233.05 353.89C233.429 354.257 233.905 354.506 234.422 354.605L234.574 354.634C235.655 355.883 237.136 356.704 238.758 356.952C242.065 357.477 245.903 355.772 248.523 352.572C249.657 351.128 250.498 349.471 251 347.699C249.49 348.241 247.919 348.584 246.325 348.72" fill="white"/>
</mask>
<g mask="url(#mask4_19_1109)">
<path d="M240.146 337.26L227.057 351.355L242.3 365.948L255.39 351.854L240.146 337.26Z" fill="#064F58"/>
</g>
<mask id="mask5_19_1109" style="mask-type:luminance" maskUnits="userSpaceOnUse" x="225" y="307" width="34" height="41">
<path d="M240.673 308.447C240.232 308.555 239.821 308.669 239.408 308.793C237.97 309.204 236.578 309.769 235.257 310.481C234.926 310.675 234.595 310.868 234.283 311.065C234.249 311.084 234.217 311.107 234.187 311.132C230.54 313.518 227.78 317.073 226.348 321.227C226.19 321.667 226.053 322.112 225.933 322.57C225.515 324.101 225.288 325.678 225.258 327.264C225.228 327.697 225.238 328.137 225.238 328.576C225.367 331.834 226.294 335.003 227.936 337.796C228.04 337.966 228.134 338.133 228.241 338.293C228.35 338.482 228.47 338.665 228.598 338.842C229.434 340.091 230.407 341.239 231.499 342.262C231.819 342.579 232.155 342.879 232.506 343.16C235.041 345.245 238.046 346.66 241.257 347.281C242.699 347.554 244.169 347.656 245.637 347.583C246.052 347.556 246.478 347.53 246.899 347.472C248.42 347.273 249.91 346.875 251.332 346.287C251.753 346.117 252.166 345.924 252.567 345.71C253.433 345.281 254.261 344.777 255.042 344.204C256.36 343.162 257.395 341.795 258.046 340.234C258.698 338.673 258.945 336.971 258.764 335.291C258.614 333.229 257.782 331.283 256.401 329.77C256.302 329.276 256.071 328.819 255.735 328.448C255.399 328.077 254.97 327.807 254.493 327.666C254.016 327.524 253.51 327.517 253.028 327.645C252.545 327.773 252.106 328.032 251.755 328.393C251.405 328.754 251.157 329.204 251.038 329.696C250.919 330.187 250.934 330.701 251.08 331.184C251.226 331.666 251.499 332.098 251.868 332.434C252.238 332.769 252.692 332.996 253.18 333.09C253.443 333.133 253.712 333.137 253.977 333.103C254.46 333.854 254.754 334.714 254.834 335.609C254.942 336.55 254.828 337.505 254.5 338.394C254.173 339.284 253.642 340.083 252.952 340.725C252.884 340.801 252.807 340.869 252.724 340.927C252.443 341.13 252.152 341.332 251.855 341.51C250.615 342.301 249.251 342.869 247.822 343.189C247.448 343.277 247.065 343.354 246.727 343.418C245.17 343.635 243.59 343.593 242.05 343.294C240.142 342.936 238.317 342.225 236.667 341.196C236.311 340.968 235.957 340.729 235.607 340.47C234.488 339.634 233.484 338.651 232.621 337.547C232.374 337.243 232.131 336.918 231.91 336.588L231.61 336.124C229.91 333.398 229.095 330.195 229.28 326.963C229.291 326.565 229.328 326.169 229.391 325.776C229.57 324.311 229.96 322.879 230.55 321.527C230.712 321.12 230.904 320.718 231.107 320.318C232.357 317.941 234.19 315.929 236.428 314.48C236.693 314.306 236.966 314.144 237.259 313.986C237.552 313.828 237.924 313.643 238.282 313.476C239.554 312.907 240.883 312.483 242.246 312.212C242.651 312.129 243.064 312.058 243.463 312.006C245.955 311.552 248.519 311.881 250.813 312.95C253.061 314.225 254.701 316.484 254.761 318.485C254.782 319.135 254.604 319.777 254.252 320.323C253.845 320.198 253.411 320.19 252.998 320.3C252.586 320.409 252.21 320.633 251.914 320.946C251.522 321.297 251.234 321.752 251.081 322.259C250.929 322.766 250.919 323.306 251.052 323.817C251.185 324.328 251.456 324.79 251.834 325.152C252.212 325.513 252.683 325.76 253.193 325.864C253.831 325.985 254.492 325.872 255.059 325.546C255.626 325.219 256.062 324.701 256.289 324.081C257.076 323.367 257.701 322.489 258.121 321.508C258.541 320.526 258.746 319.464 258.721 318.397C258.593 314.939 256.241 311.399 252.664 309.422C251.505 308.794 250.255 308.353 248.96 308.116C246.208 307.646 243.387 307.758 240.673 308.447Z" fill="white"/>
</mask>
<g mask="url(#mask5_19_1109)">
<path d="M237.049 292.578L209.117 334.981L249.14 362.039L277.071 319.637L237.049 292.578Z" fill="#064F58"/>
</g>
<mask id="mask6_19_1109" style="mask-type:luminance" maskUnits="userSpaceOnUse" x="218" y="304" width="21" height="15">
<path d="M230.156 304.16C228.502 303.95 226.82 304.176 225.272 304.817C223.724 305.458 222.362 306.491 221.317 307.819C219.876 309.499 219.09 311.655 219.108 313.877C218.918 314.181 218.786 314.519 218.718 314.872C218.623 315.36 218.658 315.864 218.819 316.332C218.98 316.8 219.261 317.215 219.633 317.535C220.006 317.854 220.456 318.066 220.938 318.15C221.419 318.233 221.915 318.184 222.373 318.008C222.831 317.833 223.236 317.536 223.545 317.149C223.854 316.763 224.057 316.3 224.132 315.809C224.207 315.318 224.152 314.816 223.972 314.355C223.793 313.894 223.495 313.491 223.11 313.187C223.253 312.16 223.686 311.196 224.356 310.41C224.969 309.627 225.767 309.014 226.673 308.627C227.58 308.239 228.567 308.09 229.543 308.192C231.186 308.451 232.764 309.021 234.196 309.873C235.529 309.049 236.948 308.38 238.426 307.879C236.218 306.044 233.586 304.806 230.775 304.278L230.156 304.16Z" fill="white"/>
</mask>
<g mask="url(#mask6_19_1109)">
<path d="M222.13 299.166L215.335 316.54L234.655 324.233L241.45 306.86L222.13 299.166Z" fill="#064F58"/>
</g>
<mask id="mask7_19_1109" style="mask-type:luminance" maskUnits="userSpaceOnUse" x="212" y="323" width="20" height="31">
<path d="M214.772 332.831C214.585 333.2 214.418 333.579 214.271 333.966C214.256 334.02 214.245 334.075 214.239 334.131C213.702 335.482 213.323 336.892 213.111 338.332C213.028 338.765 212.945 339.198 212.956 339.639C212.69 342.679 213.22 345.732 214.494 348.488C215.158 349.86 216.135 351.05 217.343 351.961C218.551 352.872 219.956 353.478 221.443 353.729C221.757 353.79 222.072 353.85 222.376 353.908C224.365 354.137 226.377 353.69 228.098 352.637L228.148 352.647C228.675 352.751 229.222 352.696 229.72 352.488C230.218 352.28 230.646 351.928 230.951 351.477C231.256 351.026 231.425 350.495 231.437 349.949C231.448 349.403 231.302 348.867 231.017 348.406C230.731 347.946 230.318 347.582 229.829 347.358C229.34 347.135 228.797 347.062 228.266 347.149C227.735 347.236 227.24 347.479 226.842 347.849C226.443 348.218 226.16 348.697 226.026 349.226C225.027 349.775 223.88 349.977 222.761 349.8C221.782 349.742 220.834 349.432 220.007 348.9C219.18 348.368 218.5 347.631 218.032 346.758C217.347 345.289 216.937 343.702 216.822 342.078C216.809 341.638 216.82 341.197 216.854 340.758C218.367 341.666 220.023 342.304 221.751 342.645L222.36 342.762C224.861 343.242 227.434 343.21 229.929 342.668L227.972 339.92C227.336 338.568 227.436 338.983 226.419 339.078C225.147 339.156 223.872 339.035 222.638 338.719C220.817 338.4 219.081 337.705 217.539 336.675C217.542 336.63 217.551 336.585 217.565 336.541C217.628 336.211 217.78 335.909 217.894 335.588C217.9 335.532 217.91 335.477 217.926 335.423C219.19 332.355 221.347 329.747 224.106 327.952C224.095 326.328 224.27 324.707 224.629 323.122C220.323 325.08 216.831 328.52 214.772 332.831Z" fill="white"/>
</mask>
<g mask="url(#mask7_19_1109)">
<path d="M216.576 320.18L208.528 351.068L230.29 356.78L238.338 325.892L216.576 320.18Z" fill="#064F58"/>
</g>
</g>
</g>
<defs>
<clipPath id="clip0_19_1109">
<rect width="437" height="437" fill="white" transform="translate(82.8833 -26.1204) rotate(10.8157)"/>
</clipPath>
<clipPath id="clip1_19_1109">
<rect width="52.9697" height="52.9697" fill="white" transform="translate(212.171 299.226) rotate(10.8157)"/>
</clipPath>
</defs>
</svg>
