<svg width="25" height="25" viewBox="0 0 25 25" fill="none" xmlns="http://www.w3.org/2000/svg">
<g clip-path="url(#clip0_9_8663)">
<path d="M22.6562 6.25V4.6875C22.6562 4.2731 22.4916 3.87567 22.1986 3.58265C21.9056 3.28962 21.5082 3.125 21.0938 3.125H3.90625C3.49185 3.125 3.09442 3.28962 2.8014 3.58265C2.50837 3.87567 2.34375 4.2731 2.34375 4.6875V6.25C2.34375 6.6644 2.50837 7.06183 2.8014 7.35485C3.09442 7.64788 3.49185 7.8125 3.90625 7.8125V17.1875H3.125C2.9178 17.1875 2.71909 17.2698 2.57257 17.4163C2.42606 17.5628 2.34375 17.7615 2.34375 17.9688C2.34375 18.176 2.42606 18.3747 2.57257 18.5212C2.71909 18.6677 2.9178 18.75 3.125 18.75H11.7188V20.4473C11.1975 20.6316 10.7582 20.9942 10.4784 21.4711C10.1987 21.948 10.0965 22.5084 10.19 23.0533C10.2835 23.5982 10.5666 24.0926 10.9893 24.4489C11.412 24.8053 11.9471 25.0007 12.5 25.0007C13.0529 25.0007 13.588 24.8053 14.0107 24.4489C14.4334 24.0926 14.7165 23.5982 14.81 23.0533C14.9035 22.5084 14.8013 21.948 14.5216 21.4711C14.2418 20.9942 13.8025 20.6316 13.2812 20.4473V18.75H21.875C22.0822 18.75 22.2809 18.6677 22.4274 18.5212C22.5739 18.3747 22.6562 18.176 22.6562 17.9688C22.6562 17.7615 22.5739 17.5628 22.4274 17.4163C22.2809 17.2698 22.0822 17.1875 21.875 17.1875H21.0938V7.8125C21.5082 7.8125 21.9056 7.64788 22.1986 7.35485C22.4916 7.06183 22.6562 6.6644 22.6562 6.25ZM12.5 23.4375C12.3455 23.4375 12.1944 23.3917 12.066 23.3058C11.9375 23.22 11.8373 23.098 11.7782 22.9552C11.7191 22.8125 11.7036 22.6554 11.7338 22.5038C11.7639 22.3523 11.8383 22.2131 11.9476 22.1038C12.0568 21.9946 12.196 21.9202 12.3476 21.89C12.4991 21.8599 12.6562 21.8753 12.799 21.9345C12.9417 21.9936 13.0637 22.0937 13.1496 22.2222C13.2354 22.3507 13.2812 22.5017 13.2812 22.6562C13.2812 22.8635 13.1989 23.0622 13.0524 23.2087C12.9059 23.3552 12.7072 23.4375 12.5 23.4375ZM3.90625 4.6875H21.0938V6.25H3.90625V4.6875ZM19.5312 17.1875H5.46875V7.8125H19.5312V17.1875Z" fill="#7D868D"/>
</g>
<defs>
<clipPath id="clip0_9_8663">
<rect width="25" height="25" fill="white"/>
</clipPath>
</defs>
</svg>
