<svg width="40" height="40" viewBox="0 0 40 40" fill="none" xmlns="http://www.w3.org/2000/svg">
<path d="M4.375 0H35.625C38.04 0 40 1.96 40 4.375V35.625C40 36.7853 39.5391 37.8981 38.7186 38.7186C37.8981 39.5391 36.7853 40 35.625 40H4.375C3.21468 40 2.10188 39.5391 1.28141 38.7186C0.460936 37.8981 0 36.7853 0 35.625L0 4.375C0 1.96 1.96 0 4.375 0ZM3.75 4.375V35.625C3.75 35.97 4.03 36.25 4.375 36.25H35.625C35.7908 36.25 35.9497 36.1842 36.0669 36.0669C36.1842 35.9497 36.25 35.7908 36.25 35.625V4.375C36.25 4.20924 36.1842 4.05027 36.0669 3.93306C35.9497 3.81585 35.7908 3.75 35.625 3.75H4.375C4.20924 3.75 4.05027 3.81585 3.93306 3.93306C3.81585 4.05027 3.75 4.20924 3.75 4.375ZM29.375 7.5C29.8723 7.5 30.3492 7.69754 30.7008 8.04917C31.0525 8.40081 31.25 8.87772 31.25 9.375V28.125C31.25 28.6223 31.0525 29.0992 30.7008 29.4508C30.3492 29.8025 29.8723 30 29.375 30C28.8777 30 28.4008 29.8025 28.0492 29.4508C27.6975 29.0992 27.5 28.6223 27.5 28.125V9.375C27.5 8.87772 27.6975 8.40081 28.0492 8.04917C28.4008 7.69754 28.8777 7.5 29.375 7.5ZM8.75 9.375C8.75 8.87772 8.94754 8.40081 9.29917 8.04917C9.65081 7.69754 10.1277 7.5 10.625 7.5C11.1223 7.5 11.5992 7.69754 11.9508 8.04917C12.3025 8.40081 12.5 8.87772 12.5 9.375V23.125C12.5 23.6223 12.3025 24.0992 11.9508 24.4508C11.5992 24.8025 11.1223 25 10.625 25C10.1277 25 9.65081 24.8025 9.29917 24.4508C8.94754 24.0992 8.75 23.6223 8.75 23.125V9.375ZM20 7.5C20.4973 7.5 20.9742 7.69754 21.3258 8.04917C21.6775 8.40081 21.875 8.87772 21.875 9.375V18.125C21.875 18.6223 21.6775 19.0992 21.3258 19.4508C20.9742 19.8025 20.4973 20 20 20C19.5027 20 19.0258 19.8025 18.6742 19.4508C18.3225 19.0992 18.125 18.6223 18.125 18.125V9.375C18.125 8.87772 18.3225 8.40081 18.6742 8.04917C19.0258 7.69754 19.5027 7.5 20 7.5Z" fill="#00AF66"/>
</svg>
