<svg width="36" height="35" viewBox="0 0 36 35" fill="none" xmlns="http://www.w3.org/2000/svg">
<mask id="mask0_18_656" style="mask-type:luminance" maskUnits="userSpaceOnUse" x="19" y="4" width="7" height="8">
<path d="M19.7812 5.71153C21.0831 7.09811 22.0074 8.80564 22.463 10.6659C23.4813 10.9396 24.4658 11.33 25.3975 11.8296C25.0966 9.10725 24.0012 6.53885 22.2524 4.45508C21.3846 4.77763 20.5556 5.19913 19.7812 5.71153Z" fill="white"/>
</mask>
<g mask="url(#mask0_18_656)">
<path d="M24.5172 2.37153L17.1406 5.61914L20.6718 13.913L28.0483 10.6654L24.5172 2.37153Z" fill="white"/>
</g>
<mask id="mask1_18_656" style="mask-type:luminance" maskUnits="userSpaceOnUse" x="0" y="10" width="7" height="15">
<path d="M3.84572 11.0296C2.62743 11.3287 1.57058 12.0964 0.897204 13.1713C-0.324323 15.1345 -0.296242 18.0186 0.967407 20.5244C1.86937 22.1755 3.19702 23.5454 4.8075 24.4865C4.80607 23.6118 4.88836 22.7392 5.05321 21.8808C5.05321 21.7237 5.11639 21.5666 5.15851 21.4096C4.41704 20.8312 3.80252 20.1018 3.3543 19.2679C2.54697 17.6545 2.46975 15.7413 3.16475 14.6133C3.36554 14.3083 3.64149 14.0622 3.96506 13.8995C4.28855 14.1668 4.69254 14.313 5.10937 14.3135C5.41377 14.3146 5.71382 14.24 5.98338 14.0961C6.25294 13.9523 6.48384 13.7437 6.65597 13.4884C6.8281 13.233 6.93625 12.9388 6.97099 12.6313C7.00573 12.3238 6.96601 12.0123 6.85529 11.7239C6.74457 11.4355 6.56621 11.1791 6.33574 10.9769C6.10528 10.7746 5.82968 10.6328 5.53297 10.5636C5.23625 10.4945 4.92741 10.5001 4.63334 10.5801C4.33927 10.6601 4.06888 10.8119 3.84572 11.0225" fill="white"/>
</mask>
<g mask="url(#mask1_18_656)">
<path d="M6.83531 9.49833L-2.2168 10.7871L-0.189219 25.5138L8.86289 24.225L6.83531 9.49833Z" fill="white"/>
</g>
<mask id="mask2_18_656" style="mask-type:luminance" maskUnits="userSpaceOnUse" x="18" y="14" width="8" height="10">
<path d="M18.9883 21.5804L21.4313 23.0082C23.1443 21.7232 24.9415 18.3108 25.2925 15.7551L22.8143 14.2773C22.3791 16.8259 20.8627 20.0741 18.9883 21.609" fill="white"/>
</mask>
<g mask="url(#mask2_18_656)">
<path d="M21.7835 11.0657L14.6953 19.1387L22.4928 26.2183L29.581 18.1453L21.7835 11.0657Z" fill="white"/>
</g>
<mask id="mask3_18_656" style="mask-type:luminance" maskUnits="userSpaceOnUse" x="15" y="11" width="17" height="13">
<path d="M15.907 11.3155C15.6454 12.2793 15.5387 13.2797 15.5911 14.2781C17.5294 13.6117 19.6189 13.5471 21.5934 14.0925C22.9549 14.391 24.2203 15.0344 25.272 15.9629C25.4889 16.1227 25.6953 16.2968 25.8898 16.484C26.1382 16.7069 26.3727 16.9453 26.5918 17.1979C27.021 17.6683 27.4042 18.1799 27.7361 18.7256C28.5194 20.0593 29.0459 21.5323 29.2876 23.0661C30.1827 22.6537 30.9927 22.0723 31.6745 21.3528C31.3268 19.9148 30.7682 18.5383 30.0177 17.2693C29.0436 15.6911 27.7515 14.3407 26.2268 13.3072C25.9778 13.1297 25.7201 12.9653 25.4545 12.8146C24.5719 12.2891 23.6287 11.8767 22.6464 11.5867C22.382 11.4964 22.1124 11.4225 21.8391 11.3654C20.8607 11.135 19.8598 11.0176 18.8555 11.0156C17.8631 11.0163 16.8739 11.1313 15.907 11.3583" fill="white"/>
</mask>
<g mask="url(#mask3_18_656)">
<path d="M18.3528 4.74251L11.0449 20.9219L28.882 29.2532L36.19 13.0738L18.3528 4.74251Z" fill="white"/>
</g>
<mask id="mask4_18_656" style="mask-type:luminance" maskUnits="userSpaceOnUse" x="20" y="26" width="13" height="9">
<path d="M29.1125 27.6484C29.0162 27.9832 28.8844 28.3064 28.7194 28.6122C27.8488 30.2041 26.3395 31.3321 25.0337 31.3678C24.5812 31.3839 24.1356 31.2512 23.763 30.9894C23.7158 30.6292 23.5676 30.2904 23.3361 30.0136C23.1046 29.7368 22.7995 29.5337 22.4575 29.4285C22.1154 29.3233 21.7508 29.3205 21.4072 29.4205C21.0636 29.5204 20.7556 29.7189 20.52 29.9922C20.2845 30.2654 20.1313 30.6019 20.0788 30.9614C20.0263 31.3208 20.0767 31.6881 20.224 32.0192C20.3713 32.3502 20.6093 32.6312 20.9095 32.8284C21.2097 33.0256 21.5593 33.1307 21.9167 33.1311H22.022C22.9028 33.8271 23.9962 34.186 25.1109 34.1448C27.3855 34.0734 29.7303 32.4458 31.0711 29.9757C31.6434 28.8668 31.9942 27.6537 32.1031 26.4062C31.1644 26.9611 30.1592 27.3906 29.1125 27.6841" fill="white"/>
</mask>
<g mask="url(#mask4_18_656)">
<path d="M23.5262 20.8222L16.5857 31.9006L28.6228 39.6987L35.5632 28.6202L23.5262 20.8222Z" fill="white"/>
</g>
<mask id="mask5_18_656" style="mask-type:luminance" maskUnits="userSpaceOnUse" x="12" y="0" width="24" height="28">
<path d="M20.2028 1.52028C19.922 1.64878 19.6623 1.77728 19.4025 1.91292C18.4948 2.37031 17.6381 2.92557 16.8471 3.56914C16.6506 3.74048 16.454 3.91181 16.2715 4.08315C16.251 4.10034 16.2322 4.11946 16.2153 4.14026C14.0853 6.19787 12.696 8.92288 12.2699 11.8788C12.2208 12.1929 12.1857 12.5071 12.1646 12.8283C12.0807 13.9036 12.1302 14.9853 12.3121 16.048C12.3472 16.3406 12.4103 16.6333 12.4665 16.926C12.9677 19.0847 13.9909 21.0821 15.4431 22.7371C15.5344 22.8371 15.6186 22.937 15.7099 23.0298C15.8074 23.1421 15.9105 23.2494 16.0188 23.3511C16.7357 24.0783 17.5318 24.7202 18.3916 25.2643C18.6456 25.435 18.908 25.5922 19.1779 25.7354C21.1363 26.8034 23.323 27.3648 25.5453 27.3703C26.5431 27.3685 27.5373 27.2487 28.5078 27.0133C28.7816 26.9419 29.0624 26.8705 29.3362 26.7777C30.3262 26.4514 31.2701 25.9955 32.1443 25.4213C32.404 25.2542 32.6547 25.0731 32.8955 24.8788C33.4185 24.4819 33.907 24.04 34.3557 23.5581C35.1025 22.6941 35.6187 21.6496 35.8547 20.5246C36.0907 19.3996 36.0387 18.2318 35.7036 17.1331C35.3404 15.7756 34.5363 14.583 33.422 13.7492C33.2924 13.4318 33.0805 13.1561 32.8089 12.9515C32.5373 12.7469 32.2162 12.6211 31.8798 12.5875C31.5434 12.5539 31.2044 12.6138 30.8989 12.7608C30.5933 12.9078 30.3327 13.1363 30.1449 13.4221C29.9571 13.7078 29.849 14.04 29.8323 14.3833C29.8155 14.7266 29.8907 15.0681 30.0498 15.3713C30.2089 15.6746 30.446 15.9282 30.7357 16.1052C31.0255 16.2822 31.357 16.3759 31.695 16.3763C31.8763 16.371 32.0559 16.3398 32.2286 16.2835C32.6469 16.7227 32.9531 17.2595 33.1201 17.847C33.3124 18.4611 33.358 19.1131 33.253 19.7488C33.148 20.3844 32.8955 20.9855 32.5164 21.5021C32.4805 21.5615 32.4381 21.6165 32.39 21.6663C32.2286 21.8376 32.0601 22.0089 31.8846 22.166C31.1574 22.8522 30.319 23.4053 29.4064 23.8008C29.1677 23.9079 28.922 24.0078 28.7044 24.0935C27.6927 24.4368 26.6328 24.6104 25.5663 24.6075C24.2471 24.612 22.9384 24.3701 21.7052 23.8936C21.4384 23.7865 21.1716 23.6723 20.9049 23.5438C20.0516 23.1287 19.2561 22.6006 18.539 21.9732C18.3354 21.8019 18.1319 21.6163 17.9423 21.4235L17.6826 21.1523C16.1998 19.5494 15.2474 17.515 14.9587 15.3341C14.9156 15.0672 14.8898 14.7977 14.8815 14.5274C14.8142 13.5265 14.8923 12.521 15.1131 11.5433C15.1693 11.2506 15.2465 10.9579 15.3308 10.6652C15.8623 8.91877 16.8298 7.34219 18.1389 6.08918C18.2933 5.93926 18.4548 5.79648 18.6303 5.6537C18.8058 5.51093 19.0305 5.33959 19.2481 5.18254C20.0247 4.6404 20.8582 4.18787 21.7333 3.83328C21.993 3.7262 22.2598 3.62626 22.5195 3.54059C24.1251 2.91953 25.8789 2.81242 27.546 3.23362C29.2099 3.79759 30.5928 5.09687 30.8877 6.42471C30.9847 6.85614 30.9479 7.30755 30.7824 7.71685C30.4947 7.68501 30.204 7.73487 29.9425 7.86089C29.681 7.98691 29.459 8.18416 29.3011 8.43074C29.0843 8.71524 28.9498 9.05562 28.9127 9.41361C28.8757 9.77159 28.9377 10.133 29.0916 10.4571C29.2455 10.7813 29.4853 11.0553 29.784 11.2485C30.0827 11.4416 30.4284 11.5462 30.7824 11.5504C31.2237 11.5499 31.6505 11.3904 31.9872 11.1003C32.3239 10.8102 32.5487 10.4082 32.6217 9.9656C33.0558 9.3889 33.3611 8.72289 33.5163 8.01397C33.6715 7.30505 33.6728 6.57025 33.5203 5.86073C32.9938 3.56914 30.9719 1.506 28.3323 0.642193C27.4781 0.37075 26.5876 0.235883 25.6927 0.242414C23.7958 0.279733 21.9268 0.714761 20.2028 1.52028Z" fill="white"/>
</mask>
<g mask="url(#mask5_18_656)">
<path d="M15.7596 -8.61073L2.52148 23.2578L32.6899 36.2168L45.928 4.34826L15.7596 -8.61073Z" fill="white"/>
</g>
<mask id="mask6_18_656" style="mask-type:luminance" maskUnits="userSpaceOnUse" x="6" y="0" width="13" height="11">
<path d="M12.6353 6.74176e-05C11.5045 0.07066 10.4105 0.436135 9.45887 1.0613C8.5072 1.68647 7.72983 2.55027 7.20163 3.56952C6.45384 4.87524 6.204 6.41489 6.49961 7.8957C6.41137 8.123 6.36611 8.36521 6.36622 8.60959C6.36512 8.94732 6.45261 9.27925 6.61968 9.57114C6.78675 9.86304 7.02735 10.1043 7.31668 10.2702C7.60601 10.436 7.9336 10.5204 8.26567 10.5146C8.59775 10.5088 8.9223 10.413 9.20586 10.2372C9.48941 10.0613 9.72172 9.81177 9.87884 9.51421C10.036 9.21666 10.1122 8.88187 10.0997 8.54437C10.0872 8.20688 9.98636 7.87888 9.80766 7.59419C9.62897 7.30951 9.37884 7.07844 9.08307 6.92481C9.04761 6.22094 9.21342 5.52171 9.56045 4.91163C9.87031 4.31122 10.3243 3.80011 10.8802 3.42571C11.4362 3.05131 12.0761 2.82575 12.7406 2.76996C13.8703 2.73297 14.9967 2.91217 16.0612 3.29824C16.8458 2.57845 17.7077 1.95101 18.6306 1.42785C16.9222 0.484389 15.0077 -0.00662055 13.0636 6.74176e-05H12.6353Z" fill="white"/>
</mask>
<g mask="url(#mask6_18_656)">
<path d="M6.64079 -2.31015L4.32031 10.1543L18.1986 12.826L20.5191 0.361599L6.64079 -2.31015Z" fill="white"/>
</g>
<mask id="mask7_18_656" style="mask-type:luminance" maskUnits="userSpaceOnUse" x="5" y="13" width="15" height="22">
<path d="M6.02212 21.1019C5.94489 21.372 5.88162 21.646 5.83257 21.9228C5.82938 21.9608 5.82938 21.999 5.83257 22.0371C5.64617 23.0077 5.57312 23.9973 5.61494 24.9854C5.61494 25.2853 5.61494 25.5851 5.67813 25.8778C5.88843 27.9415 6.632 29.9119 7.83335 31.5889C8.45209 32.4198 9.25566 33.0898 10.1782 33.544C11.1007 33.9982 12.1159 34.2236 13.1407 34.2017C13.3583 34.2017 13.5759 34.2017 13.7865 34.2017C15.1436 34.1008 16.4296 33.5461 17.4441 32.6241H17.4792C17.8442 32.6262 18.2018 32.5195 18.5078 32.3171C18.8138 32.1148 19.0548 31.8257 19.201 31.4856C19.3471 31.1455 19.3921 30.7693 19.3303 30.4035C19.2684 30.0377 19.1026 29.6983 18.8531 29.4273C18.6036 29.1564 18.2816 28.9657 17.9267 28.8789C17.5718 28.792 17.1997 28.8129 16.8563 28.9388C16.513 29.0647 16.2135 29.2902 15.9948 29.5874C15.7761 29.8846 15.6478 30.2404 15.6259 30.6109C15.029 31.105 14.289 31.3859 13.5198 31.4104C12.8583 31.4965 12.1862 31.4107 11.5663 31.161C10.9463 30.9113 10.3987 30.5059 9.97453 29.9827C9.32998 29.0895 8.85391 28.0826 8.57048 27.0129C8.50566 26.7207 8.45644 26.4252 8.42305 26.1276C9.54908 26.5408 10.7361 26.7556 11.9332 26.763H12.3544C14.0851 26.7649 15.7988 26.4154 17.395 25.735L15.7382 24.1502C15.1415 23.3292 15.2608 23.5933 14.5939 23.7861C13.7547 24.0007 12.8881 24.0826 12.0245 24.0288C10.7678 24.0484 9.52048 23.8054 8.35987 23.3149C8.35612 23.2841 8.35612 23.2529 8.35987 23.2221C8.35987 22.9937 8.42305 22.7724 8.45815 22.5439C8.45496 22.5059 8.45496 22.4677 8.45815 22.4297C8.91068 20.2201 10.0181 18.2045 11.6313 16.6543C11.4166 15.5716 11.3271 14.4671 11.3645 13.3633C8.73968 15.219 6.84676 17.9609 6.02212 21.1019Z" fill="white"/>
</mask>
<g mask="url(#mask7_18_656)">
<path d="M5.61332 12.4262L4.17969 34.0723L19.4357 35.11L20.8694 13.4639L5.61332 12.4262Z" fill="white"/>
</g>
</svg>
