<svg width="36" height="37" viewBox="0 0 36 37" fill="none" xmlns="http://www.w3.org/2000/svg">
<mask id="mask0_9_8103" style="mask-type:luminance" maskUnits="userSpaceOnUse" x="19" y="5" width="7" height="9">
<path d="M19.7815 7.21116C21.0834 8.59775 22.0076 10.3053 22.4632 12.1656C23.4816 12.4392 24.466 12.8296 25.3977 13.3292C25.0968 10.6069 24.0014 8.03849 22.2526 5.95471C21.3849 6.27726 20.5559 6.69877 19.7815 7.21116Z" fill="white"/>
</mask>
<g mask="url(#mask0_9_8103)">
<path d="M24.5169 3.87055L17.1404 7.11816L20.6715 15.4121L28.0481 12.1645L24.5169 3.87055Z" fill="#50BB87"/>
</g>
<mask id="mask1_9_8103" style="mask-type:luminance" maskUnits="userSpaceOnUse" x="0" y="12" width="7" height="14">
<path d="M3.84572 12.5297C2.62743 12.8289 1.57058 13.5965 0.897204 14.6714C-0.324323 16.6346 -0.296242 19.5187 0.967407 22.0245C1.86937 23.6757 3.19702 25.0455 4.8075 25.9866C4.80607 25.112 4.88836 24.2393 5.05321 23.3809C5.05321 23.2238 5.11639 23.0668 5.15851 22.9097C4.41704 22.3313 3.80252 21.6019 3.3543 20.768C2.54697 19.1546 2.46975 17.2414 3.16475 16.1135C3.36554 15.8084 3.64149 15.5623 3.96506 15.3996C4.28855 15.6669 4.69254 15.8131 5.10937 15.8136C5.41377 15.8147 5.71382 15.7401 5.98338 15.5963C6.25294 15.4524 6.48384 15.2438 6.65597 14.9885C6.8281 14.7332 6.93625 14.4389 6.97099 14.1314C7.00573 13.8239 6.96601 13.5124 6.85529 13.224C6.74457 12.9357 6.56621 12.6792 6.33574 12.477C6.10528 12.2748 5.82968 12.1329 5.53297 12.0637C5.23625 11.9946 4.92741 12.0002 4.63334 12.0802C4.33927 12.1602 4.06888 12.3121 3.84572 12.5226" fill="white"/>
</mask>
<g mask="url(#mask1_9_8103)">
<path d="M6.83531 10.9976L-2.2168 12.2864L-0.189219 27.0131L8.86289 25.7243L6.83531 10.9976Z" fill="#50BB87"/>
</g>
<mask id="mask2_9_8103" style="mask-type:luminance" maskUnits="userSpaceOnUse" x="18" y="15" width="8" height="10">
<path d="M18.9878 23.0811L21.4308 24.5088C23.1438 23.2238 24.941 19.8114 25.292 17.2557L22.8138 15.778C22.3786 18.3265 20.8622 21.5747 18.9878 23.1096" fill="white"/>
</mask>
<g mask="url(#mask2_9_8103)">
<path d="M21.7835 12.5676L14.6953 20.6406L22.4928 27.7202L29.581 19.6472L21.7835 12.5676Z" fill="#50BB87"/>
</g>
<mask id="mask3_9_8103" style="mask-type:luminance" maskUnits="userSpaceOnUse" x="15" y="12" width="17" height="13">
<path d="M15.9065 12.8152C15.6449 13.779 15.5382 14.7795 15.5906 15.7779C17.5289 15.1114 19.6184 15.0468 21.5929 15.5922C22.9544 15.8908 24.2198 16.5341 25.2715 17.4626C25.4884 17.6225 25.6948 17.7965 25.8893 17.9838C26.1377 18.2066 26.3722 18.4451 26.5913 18.6977C27.0205 19.168 27.4037 19.6797 27.7356 20.2254C28.5189 21.559 29.0454 23.0321 29.2871 24.5659C30.1822 24.1535 30.9922 23.5721 31.674 22.8525C31.3263 21.4146 30.7678 20.038 30.0172 18.7691C29.0431 17.1908 27.751 15.8404 26.2263 14.807C25.9773 14.6294 25.7196 14.465 25.4541 14.3144C24.5714 13.7889 23.6282 13.3764 22.6459 13.0865C22.3815 12.9961 22.1119 12.9222 21.8386 12.8652C20.8602 12.6347 19.8593 12.5174 18.855 12.5154C17.8626 12.5161 16.8735 12.631 15.9065 12.858" fill="white"/>
</mask>
<g mask="url(#mask3_9_8103)">
<path d="M18.3524 6.24215L11.0444 22.4215L28.8815 30.7528L36.1895 14.5734L18.3524 6.24215Z" fill="#50BB87"/>
</g>
<mask id="mask4_9_8103" style="mask-type:luminance" maskUnits="userSpaceOnUse" x="20" y="27" width="13" height="9">
<path d="M29.112 29.149C29.0157 29.4838 28.8839 29.807 28.7189 30.1128C27.8484 31.7048 26.339 32.8327 25.0332 32.8684C24.5807 32.8845 24.1351 32.7518 23.7626 32.49C23.7154 32.1298 23.5671 31.791 23.3356 31.5142C23.1041 31.2374 22.799 31.0343 22.457 30.9291C22.1149 30.8239 21.7503 30.8211 21.4067 30.9211C21.0631 31.021 20.7551 31.2195 20.5196 31.4928C20.284 31.7661 20.1308 32.1025 20.0783 32.462C20.0258 32.8215 20.0762 33.1887 20.2235 33.5198C20.3709 33.8509 20.6088 34.1318 20.909 34.329C21.2092 34.5262 21.5589 34.6313 21.9162 34.6317H22.0215C22.9023 35.3278 23.9957 35.6866 25.1104 35.6454C27.385 35.574 29.7298 33.9464 31.0707 31.4763C31.6429 30.3674 31.9937 29.1543 32.1026 27.9069C31.1639 28.4617 30.1587 28.8912 29.112 29.1847" fill="white"/>
</mask>
<g mask="url(#mask4_9_8103)">
<path d="M23.5259 22.3235L16.5854 33.402L28.6225 41.2L35.563 30.1216L23.5259 22.3235Z" fill="#50BB87"/>
</g>
<mask id="mask5_9_8103" style="mask-type:luminance" maskUnits="userSpaceOnUse" x="12" y="1" width="24" height="28">
<path d="M20.2028 3.02064C19.922 3.14914 19.6623 3.27764 19.4025 3.41328C18.4948 3.87068 17.6381 4.42594 16.8471 5.06951C16.6506 5.24084 16.454 5.41218 16.2715 5.58351C16.251 5.60071 16.2322 5.61983 16.2153 5.64062C14.0853 7.69823 12.696 10.4232 12.2699 13.3792C12.2208 13.6933 12.1857 14.0074 12.1646 14.3287C12.0807 15.4039 12.1302 16.4856 12.3121 17.5483C12.3472 17.841 12.4103 18.1337 12.4665 18.4264C12.9677 20.5851 13.9909 22.5825 15.4431 24.2375C15.5344 24.3374 15.6186 24.4374 15.7099 24.5302C15.8074 24.6425 15.9105 24.7497 16.0188 24.8514C16.7357 25.5787 17.5318 26.2206 18.3916 26.7646C18.6456 26.9353 18.908 27.0926 19.1779 27.2358C21.1363 28.3038 23.323 28.8652 25.5453 28.8706C26.5431 28.8688 27.5373 28.7491 28.5078 28.5137C28.7816 28.4423 29.0624 28.3709 29.3362 28.2781C30.3262 27.9518 31.2701 27.4958 32.1443 26.9217C32.404 26.7545 32.6547 26.5734 32.8955 26.3791C33.4185 25.9822 33.907 25.5404 34.3557 25.0584C35.1025 24.1945 35.6187 23.1499 35.8547 22.0249C36.0907 20.8999 36.0387 19.7321 35.7036 18.6334C35.3404 17.2759 34.5363 16.0833 33.422 15.2496C33.2924 14.9322 33.0805 14.6564 32.8089 14.4519C32.5373 14.2473 32.2162 14.1215 31.8798 14.0879C31.5434 14.0543 31.2044 14.1142 30.8989 14.2612C30.5933 14.4081 30.3327 14.6367 30.1449 14.9224C29.9571 15.2082 29.849 15.5404 29.8323 15.8837C29.8155 16.227 29.8907 16.5685 30.0498 16.8717C30.2089 17.1749 30.446 17.4286 30.7357 17.6056C31.0255 17.7826 31.357 17.8763 31.695 17.8767C31.8763 17.8714 32.0559 17.8402 32.2286 17.7839C32.6469 18.2231 32.9531 18.7599 33.1201 19.3473C33.3124 19.9615 33.358 20.6135 33.253 21.2491C33.148 21.8848 32.8955 22.4858 32.5164 23.0024C32.4805 23.0618 32.4381 23.1169 32.39 23.1666C32.2286 23.338 32.0601 23.5093 31.8846 23.6664C31.1574 24.3526 30.319 24.9057 29.4064 25.3012C29.1677 25.4083 28.922 25.5082 28.7044 25.5939C27.6927 25.9372 26.6328 26.1108 25.5663 26.1079C24.2471 26.1124 22.9384 25.8704 21.7052 25.394C21.4384 25.2869 21.1716 25.1727 20.9049 25.0442C20.0516 24.6291 19.2561 24.101 18.539 23.4736C18.3354 23.3023 18.1319 23.1167 17.9423 22.9239L17.6826 22.6526C16.1998 21.0498 15.2474 19.0154 14.9587 16.8344C14.9156 16.5675 14.8898 16.2981 14.8815 16.0277C14.8142 15.0269 14.8923 14.0214 15.1131 13.0437C15.1693 12.751 15.2465 12.4583 15.3308 12.1656C15.8623 10.4191 16.8298 8.84255 18.1389 7.58954C18.2933 7.43963 18.4548 7.29685 18.6303 7.15407C18.8058 7.01129 19.0305 6.83996 19.2481 6.6829C20.0247 6.14077 20.8582 5.68823 21.7333 5.33365C21.993 5.22657 22.2598 5.12662 22.5195 5.04095C24.1251 4.41989 25.8789 4.31278 27.546 4.73398C29.2099 5.29796 30.5928 6.59724 30.8877 7.92507C30.9847 8.35651 30.9479 8.80791 30.7824 9.21722C30.4947 9.18538 30.204 9.23523 29.9425 9.36125C29.681 9.48727 29.459 9.68453 29.3011 9.93111C29.0843 10.2156 28.9498 10.556 28.9127 10.914C28.8757 11.272 28.9377 11.6333 29.0916 11.9575C29.2455 12.2816 29.4853 12.5557 29.784 12.7488C30.0827 12.942 30.4284 13.0466 30.7824 13.0508C31.2237 13.0502 31.6505 12.8908 31.9872 12.6007C32.3239 12.3105 32.5487 11.9086 32.6217 11.466C33.0558 10.8893 33.3611 10.2233 33.5163 9.51434C33.6715 8.80541 33.6728 8.07061 33.5203 7.3611C32.9938 5.06951 30.9719 3.00637 28.3323 2.14256C27.4781 1.87112 26.5876 1.73625 25.6927 1.74278C23.7958 1.7801 21.9268 2.21513 20.2028 3.02064Z" fill="white"/>
</mask>
<g mask="url(#mask5_9_8103)">
<path d="M15.7601 -7.11147L2.52197 24.7571L32.6904 37.7161L45.9285 5.84753L15.7601 -7.11147Z" fill="#50BB87"/>
</g>
<mask id="mask6_9_8103" style="mask-type:luminance" maskUnits="userSpaceOnUse" x="6" y="1" width="13" height="12">
<path d="M12.6353 1.50007C11.5045 1.57066 10.4105 1.93614 9.45887 2.5613C8.5072 3.18647 7.72983 4.05027 7.20163 5.06952C6.45384 6.37524 6.204 7.91489 6.49961 9.3957C6.41137 9.623 6.36611 9.86521 6.36622 10.1096C6.36512 10.4473 6.45261 10.7792 6.61968 11.0711C6.78675 11.363 7.02735 11.6043 7.31668 11.7702C7.60601 11.936 7.9336 12.0204 8.26567 12.0146C8.59775 12.0088 8.9223 11.913 9.20586 11.7372C9.48941 11.5613 9.72172 11.3118 9.87884 11.0142C10.036 10.7167 10.1122 10.3819 10.0997 10.0444C10.0872 9.70688 9.98636 9.37888 9.80766 9.09419C9.62897 8.80951 9.37884 8.57844 9.08307 8.42481C9.04761 7.72094 9.21342 7.02171 9.56045 6.41163C9.87031 5.81122 10.3243 5.30011 10.8802 4.92571C11.4362 4.55131 12.0761 4.32575 12.7406 4.26996C13.8703 4.23297 14.9967 4.41217 16.0612 4.79824C16.8458 4.07845 17.7077 3.45101 18.6306 2.92785C16.9222 1.98439 15.0077 1.49338 13.0636 1.50007H12.6353Z" fill="white"/>
</mask>
<g mask="url(#mask6_9_8103)">
<path d="M6.64128 -0.810513L4.3208 11.6539L18.1991 14.3257L20.5196 1.86123L6.64128 -0.810513Z" fill="#50BB87"/>
</g>
<mask id="mask7_9_8103" style="mask-type:luminance" maskUnits="userSpaceOnUse" x="5" y="14" width="15" height="22">
<path d="M6.02212 22.6027C5.94489 22.8728 5.88162 23.1468 5.83257 23.4237C5.82938 23.4617 5.82938 23.4999 5.83257 23.5379C5.64617 24.5086 5.57312 25.4982 5.61494 26.4863C5.61494 26.7861 5.61494 27.0859 5.67813 27.3786C5.88843 29.4424 6.632 31.4128 7.83335 33.0898C8.45209 33.9207 9.25566 34.5907 10.1782 35.0449C11.1007 35.499 12.1159 35.7244 13.1407 35.7026C13.3583 35.7026 13.5759 35.7026 13.7865 35.7026C15.1436 35.6016 16.4296 35.0469 17.4441 34.1249H17.4792C17.8442 34.127 18.2018 34.0203 18.5078 33.818C18.8138 33.6157 19.0548 33.3266 19.201 32.9865C19.3471 32.6464 19.3921 32.2701 19.3303 31.9043C19.2684 31.5385 19.1026 31.1992 18.8531 30.9282C18.6036 30.6572 18.2816 30.4666 17.9267 30.3797C17.5718 30.2929 17.1997 30.3137 16.8563 30.4397C16.513 30.5656 16.2135 30.7911 15.9948 31.0882C15.7761 31.3854 15.6478 31.7412 15.6259 32.1117C15.029 32.6058 14.289 32.8868 13.5198 32.9113C12.8583 32.9974 12.1862 32.9115 11.5663 32.6619C10.9463 32.4122 10.3987 32.0068 9.97453 31.4835C9.32998 30.5904 8.85391 29.5834 8.57048 28.5137C8.50566 28.2216 8.45644 27.9261 8.42305 27.6285C9.54908 28.0416 10.7361 28.2565 11.9332 28.2639H12.3544C14.0851 28.2658 15.7988 27.9163 17.395 27.2359L15.7382 25.651C15.1415 24.8301 15.2608 25.0942 14.5939 25.2869C13.7547 25.5015 12.8881 25.5834 12.0245 25.5297C10.7678 25.5492 9.52048 25.3063 8.35987 24.8158C8.35612 24.785 8.35612 24.7538 8.35987 24.723C8.35987 24.4945 8.42305 24.2732 8.45815 24.0448C8.45496 24.0068 8.45496 23.9686 8.45815 23.9305C8.91068 21.7209 10.0181 19.7053 11.6313 18.1552C11.4166 17.0725 11.3271 15.968 11.3645 14.8641C8.73968 16.7199 6.84676 19.4618 6.02212 22.6027Z" fill="white"/>
</mask>
<g mask="url(#mask7_9_8103)">
<path d="M5.61381 13.9258L4.18018 35.5719L19.4362 36.6097L20.8699 14.9636L5.61381 13.9258Z" fill="#50BB87"/>
</g>
</svg>
