<svg width="26" height="26" viewBox="0 0 26 26" fill="none" xmlns="http://www.w3.org/2000/svg">
<path d="M14.7334 22.8323L20.6484 19.4177C21.2811 19.0526 21.5963 18.8706 21.826 18.616C22.0292 18.3904 22.1827 18.1247 22.2767 17.836C22.3817 17.5099 22.3817 17.1459 22.3817 16.4201V9.57992C22.3817 8.85408 22.3817 8.49008 22.2756 8.164C22.1817 7.8753 22.0281 7.60955 21.8249 7.384C21.5974 7.1305 21.2832 6.9485 20.656 6.58666L14.7334 3.16766C14.1018 2.80258 13.7866 2.62058 13.4507 2.55016C13.1536 2.48698 12.8465 2.48698 12.5494 2.55016C12.2136 2.62058 11.8983 2.80258 11.2667 3.16766L5.34958 6.58341C4.71908 6.94741 4.40382 7.12941 4.17524 7.384C3.97203 7.60955 3.81849 7.8753 3.72457 8.164C3.61841 8.49116 3.61841 8.85516 3.61841 9.58425V16.4147C3.61841 17.1437 3.61841 17.5088 3.72457 17.8349C3.81849 18.1236 3.97203 18.3894 4.17524 18.6149C4.40382 18.8706 4.72016 19.0526 5.35066 19.4166L11.2657 22.8323C11.8983 23.1974 12.2136 23.3794 12.5494 23.4498C12.8462 23.5137 13.1539 23.5137 13.4507 23.4498C13.7866 23.3794 14.1018 23.1974 14.7334 22.8323Z" stroke="#7D868D" stroke-width="2" stroke-linecap="round" stroke-linejoin="round"/>
<path d="M9.75 13C9.75 13.862 10.0924 14.6886 10.7019 15.2981C11.3114 15.9076 12.138 16.25 13 16.25C13.862 16.25 14.6886 15.9076 15.2981 15.2981C15.9076 14.6886 16.25 13.862 16.25 13C16.25 12.138 15.9076 11.3114 15.2981 10.7019C14.6886 10.0924 13.862 9.75 13 9.75C12.138 9.75 11.3114 10.0924 10.7019 10.7019C10.0924 11.3114 9.75 12.138 9.75 13Z" stroke="#7D868D" stroke-width="2" stroke-linecap="round" stroke-linejoin="round"/>
</svg>
