<svg width="26" height="26" viewBox="0 0 26 26" fill="none" xmlns="http://www.w3.org/2000/svg">
<path d="M6.87917 16.6292L4.60417 14.3C5.72361 13.1806 7.00556 12.3229 8.45 11.7271C9.89445 11.1313 11.4111 10.8333 13 10.8333C14.5889 10.8333 16.1103 11.1359 17.5641 11.7412C19.0179 12.3464 20.2952 13.2174 21.3958 14.3542L19.1208 16.6292C18.3083 15.8167 17.3738 15.1894 16.3172 14.7474C15.2606 14.3054 14.1548 14.0841 13 14.0833C11.8452 14.0826 10.7394 14.304 9.68283 14.7474C8.62622 15.1909 7.69167 15.8181 6.87917 16.6292ZM2.275 12.025L0 9.75C1.71528 7.99861 3.69706 6.65781 5.94533 5.72759C8.19361 4.79736 10.5452 4.33261 13 4.33334C15.4548 4.33406 17.8068 4.79917 20.0558 5.72867C22.3048 6.65817 24.2862 7.99861 26 9.75L23.725 12.025C22.2986 10.5986 20.6599 9.50192 18.8088 8.73492C16.9578 7.96792 15.0215 7.58406 13 7.58334C10.9785 7.58261 9.04186 7.96648 7.19008 8.73492C5.33831 9.50336 3.69994 10.6001 2.275 12.025ZM13 22.75L9.18125 18.9042C9.68681 18.3986 10.2693 18.0104 10.9287 17.7396C11.5881 17.4688 12.2785 17.3333 13 17.3333C13.7215 17.3333 14.4123 17.4688 15.0724 17.7396C15.7325 18.0104 16.3146 18.3986 16.8188 18.9042L13 22.75Z" fill="white"/>
</svg>
